<svg width="52" height="16" viewBox="0 0 52 16" fill="none" xmlns="http://www.w3.org/2000/svg">
<g clip-path="url(#clip0)">
<path d="M7.66196 12.1444C7.66196 11.5067 7.66902 9.80215 7.65301 9.59214C7.66696 7.05576 5.78859 5.26658 4.60192 5.40606C3.78078 5.47602 3.09261 5.80474 2.72311 6.75041C2.38063 7.63172 2.68682 8.80399 3.82545 9.07906C5.04297 9.37448 5.75392 9.62026 6.26843 9.96702C6.89887 10.3915 7.41353 11.2026 7.42719 12.1454" fill="#0060AF"/>
<path d="M8.14804 16C6.00124 16 3.79494 15.4809 1.59158 14.4542L1.53752 14.428L1.51166 14.374C0.522889 12.3248 0 10.0836 0 7.89081C0 5.70135 0.501438 3.55602 1.49094 1.50965L1.51813 1.45527L1.57322 1.42815C3.61144 0.480185 5.80408 0 8.09221 0C10.2237 0 12.5001 0.534564 14.6742 1.54859L14.7301 1.57297L14.7558 1.62836C15.7635 3.71526 16.2949 5.95593 16.2949 8.11237C16.2949 10.2604 15.7846 12.4076 14.7757 14.4932L14.7492 14.5481L14.693 14.5734C12.686 15.5063 10.4225 16 8.14804 16ZM1.79551 14.1732C3.93599 15.1617 6.07074 15.6609 8.14804 15.6609C10.3507 15.6609 12.5412 15.1882 14.4912 14.2922C15.4598 12.2712 15.9508 10.1912 15.9508 8.11237C15.9508 6.02517 15.4384 3.85403 14.469 1.82857C12.3591 0.854783 10.1556 0.338394 8.09221 0.338394C5.87695 0.338394 3.75366 0.799683 1.777 1.70971C0.828188 3.69319 0.345263 5.77159 0.345263 7.89081C0.345263 10.0141 0.847141 12.1861 1.79551 14.1732Z" fill="#0060AF"/>
<path d="M7.15325 12.1459C7.15722 11.3285 6.69251 10.6057 6.08514 10.2172C5.54638 9.87394 4.8231 9.64834 3.65626 9.35784C3.29557 9.26726 2.91828 9.06604 2.80147 8.80957C2.4925 9.11522 2.43638 9.80239 2.49074 10.204C2.55392 10.6687 3.10707 11.4346 3.93996 11.4647C4.4486 11.4847 5.09167 11.3572 5.40005 11.2929C5.93205 11.1801 6.77375 11.5072 6.90775 12.1449" fill="#0060AF"/>
<path d="M8.09228 1.45312C6.68008 1.45312 5.4602 2.36748 5.46461 3.94968C5.46902 5.28018 6.55887 5.99245 6.94777 6.5012C7.53545 7.26784 7.85353 8.17527 7.88659 9.56376C7.9123 10.6688 7.91098 11.76 7.91671 12.1467H8.22847C8.22304 11.7421 8.20893 10.5837 8.22509 9.52957C8.24624 8.14066 8.57578 7.26784 9.16376 6.5012C9.55604 5.99245 10.645 5.28018 10.6474 3.94968C10.6526 2.36748 9.4335 1.45312 8.02248 1.45312" fill="#0060AF"/>
<path d="M8.45069 12.1444C8.45069 11.5067 8.44334 9.80215 8.45906 9.59214C8.44525 7.05576 10.3225 5.26658 11.5102 5.40606C12.3313 5.47602 13.0187 5.80474 13.3893 6.75041C13.7314 7.63172 13.4235 8.80399 12.2862 9.07906C11.0681 9.37448 10.358 9.62026 9.84217 9.96702C9.21247 10.3915 8.7338 11.2026 8.71911 12.1454" fill="#0060AF"/>
<path d="M8.95926 12.1459C8.95485 11.3285 9.41941 10.6057 10.025 10.2172C10.566 9.87394 11.2901 9.64834 12.456 9.35784C12.8174 9.26726 13.1942 9.06604 13.309 8.80957C13.6194 9.11522 13.6754 9.80239 13.621 10.204C13.5565 10.6687 13.0048 11.4346 12.1734 11.4647C11.6649 11.4847 11.0185 11.3572 10.7114 11.2929C10.1815 11.1801 9.33743 11.5072 9.20285 12.1449" fill="#0060AF"/>
<path d="M9.39482 14.784L9.21411 13.4894L9.65032 13.4245C9.75654 13.4102 9.88583 13.4284 9.93754 13.4937C9.99469 13.5619 10.0122 13.6184 10.0232 13.7078C10.0397 13.8184 10.007 13.9464 9.8801 14.0101V14.014C10.0219 14.014 10.1075 14.114 10.1324 14.2827C10.136 14.3183 10.1468 14.4045 10.136 14.4763C10.1072 14.6472 10.0034 14.7022 9.82809 14.7263L9.39482 14.784ZM9.67559 14.5522C9.7273 14.5449 9.77975 14.5422 9.82074 14.5165C9.88348 14.4763 9.87775 14.3902 9.86908 14.3263C9.84719 14.1858 9.80987 14.1324 9.6581 14.1545L9.56275 14.1689L9.62314 14.5594L9.67559 14.5522ZM9.5842 13.954C9.64194 13.9448 9.72025 13.938 9.75286 13.8842C9.76991 13.8483 9.7918 13.8197 9.7774 13.7398C9.75962 13.645 9.7276 13.5863 9.60506 13.6091L9.49091 13.6271L9.53586 13.9589" fill="#0060AF"/>
<path d="M11.2843 14.0058C11.2877 14.0299 11.2917 14.0568 11.2931 14.0808C11.3284 14.317 11.2843 14.5124 11.014 14.5662C10.6144 14.6418 10.5378 14.398 10.4674 14.0568L10.43 13.8721C10.3749 13.5456 10.3512 13.2983 10.7409 13.2222C10.9605 13.1828 11.1057 13.2686 11.166 13.4832C11.1754 13.5153 11.1872 13.547 11.1916 13.5792L10.9526 13.6276C10.9249 13.547 10.8884 13.4029 10.7808 13.415C10.5878 13.4378 10.6515 13.6736 10.6714 13.7722L10.7432 14.1266C10.7648 14.2337 10.8077 14.405 10.9748 14.3719C11.1104 14.3452 11.0513 14.1378 11.0393 14.0529" fill="#0060AF"/>
<path d="M11.6679 14.3979L11.5852 13.0581L11.9064 12.9619L12.5797 14.1271L12.3269 14.2014L12.1673 13.9053L11.8865 13.9881L11.9228 14.3247L11.6679 14.3979ZM11.863 13.7717L12.0659 13.714L11.7965 13.1719" fill="#0060AF"/>
<path d="M3.73545 13.385C3.83595 13.0691 3.92601 12.8366 4.30947 12.9399C4.51472 12.9961 4.64195 13.085 4.63593 13.3191C4.63494 13.3712 4.61741 13.4242 4.60596 13.4757L4.36721 13.411C4.3985 13.2817 4.41834 13.1792 4.25614 13.1301C4.06867 13.0796 4.02298 13.3028 3.99712 13.3991L3.90001 13.7504C3.86915 13.8547 3.83213 14.027 3.99712 14.0715C4.13346 14.1075 4.21618 13.9761 4.26554 13.7843L4.09849 13.7408L4.15623 13.5376L4.54895 13.6617L4.36251 14.3386L4.1818 14.2904L4.22249 14.1473H4.21735C4.13419 14.2643 4.03267 14.2766 3.94378 14.2598C3.55107 14.1555 3.59206 13.9036 3.68579 13.5669" fill="#0060AF"/>
<path d="M5.19711 13.9568L5.07884 14.5075L4.81262 14.451L5.09633 13.165L5.55016 13.2657C5.81579 13.322 5.89601 13.4381 5.8584 13.6771C5.83695 13.8143 5.76804 13.9621 5.59982 13.9502L5.59806 13.9479C5.74028 13.9968 5.75232 14.0672 5.72749 14.1889C5.71677 14.2407 5.64287 14.555 5.69385 14.6058L5.69561 14.6443L5.42014 14.5738C5.40868 14.4867 5.44761 14.33 5.46304 14.2433C5.47861 14.1666 5.50344 14.0584 5.4241 14.0177C5.36196 13.9853 5.33889 13.9869 5.26866 13.971L5.19711 13.9568ZM5.24251 13.7576L5.42175 13.805C5.53062 13.8205 5.59115 13.7651 5.6126 13.636C5.632 13.5176 5.60687 13.4713 5.50917 13.4483L5.317 13.4101" fill="#0060AF"/>
<path d="M6.90472 13.452L7.168 13.482L7.05457 14.386C6.99948 14.6726 6.88664 14.7979 6.56548 14.7587C6.23873 14.7182 6.16115 14.572 6.18099 14.2831L6.29514 13.3799L6.56048 13.4097L6.44662 14.2928C6.43457 14.3887 6.41194 14.5308 6.58575 14.548C6.73987 14.5595 6.77484 14.4592 6.79218 14.3346" fill="#0060AF"/>
<path d="M7.45825 14.8083L7.53744 13.5156L8.04329 13.5371C8.28233 13.5487 8.34491 13.7404 8.33742 13.9233C8.33051 14.0345 8.29511 14.1587 8.19638 14.226C8.11542 14.2833 8.0114 14.2968 7.91488 14.2922L7.75003 14.2833L7.71712 14.825L7.45825 14.8083ZM7.75753 14.0861L7.89152 14.0935C8.00039 14.0973 8.07252 14.0551 8.08193 13.8982C8.08722 13.7474 8.02918 13.7219 7.88814 13.7158L7.78192 13.7123" fill="#0060AF"/>
<path d="M43.1351 2.70268L41.1247 6.28524C40.3658 5.68029 39.4392 5.23501 38.257 5.23501C35.4592 5.23501 34.3227 7.28254 34.3227 8.72483C34.3227 9.7954 35.0368 11.375 37.5262 11.375C38.5711 11.375 40.0566 10.6613 40.4841 10.3366L38.4957 14.493C37.5479 14.6786 37.2366 14.7937 36.4343 14.8181C31.9786 14.9486 30.1781 12.2614 30.1794 9.51542C30.1824 5.8854 33.4697 1.47071 38.9193 1.47071C39.2532 1.47071 39.6617 1.58408 40.0109 1.70972L40.3638 1.2666" fill="#0060AF"/>
<path d="M51.4307 1.37891L52 14.4H47.7631L47.7606 12.1668H44.8716L43.9207 14.4H39.3258L44.1297 5.10182L43.0464 5.0949L45.1046 1.37891H51.4307ZM47.7332 5.36232L46.0997 9.1497H47.7824" fill="#0060AF"/>
<path d="M27.5046 1.37915C29.6028 1.39069 30.7884 2.50886 30.7884 4.1241C30.7884 5.61312 29.538 6.93121 28.1653 7.61276C29.5786 8.1228 29.7008 9.37483 29.7008 10.2606C29.7008 12.4006 27.5136 14.4003 24.6705 14.4003H18.4702L20.8888 5.23159L19.8953 5.22597L21.9262 1.37915C21.9262 1.37915 25.7984 1.36761 27.5046 1.37915ZM25.4461 6.65844C25.8801 6.65844 26.6465 6.55055 26.8381 5.72591C27.048 4.83075 26.3288 4.80665 25.9839 4.80665L24.7512 4.80135L24.3213 6.65848L25.4461 6.65844ZM23.7034 8.95941L23.1358 11.0994H24.5872C25.1583 11.0994 25.9365 10.8212 26.1273 10.1248C26.3156 9.42633 25.7716 8.95941 25.2025 8.95941" fill="#0060AF"/>
</g>
<defs>
<clipPath id="clip0">
<rect width="52" height="16" fill="white"/>
</clipPath>
</defs>
</svg>
