<svg width="18" height="18" viewBox="0 0 18 18" fill="none" xmlns="http://www.w3.org/2000/svg">
<path d="M14.25 7.12501H14.01L13.0725 4.78501C12.9051 4.36895 12.6171 4.01242 12.2456 3.76119C11.8741 3.50995 11.436 3.37547 10.9875 3.37501H6.4875C5.96647 3.37352 5.46107 3.5529 5.05756 3.88254C4.65406 4.21219 4.37747 4.67165 4.275 5.18251L3.885 7.12501H3.75C3.15326 7.12501 2.58097 7.36206 2.15901 7.78402C1.73705 8.20598 1.5 8.77827 1.5 9.37501V11.625C1.5 11.8239 1.57902 12.0147 1.71967 12.1553C1.86032 12.296 2.05109 12.375 2.25 12.375H3C3 12.9717 3.23705 13.544 3.65901 13.966C4.08097 14.388 4.65326 14.625 5.25 14.625C5.84674 14.625 6.41903 14.388 6.84099 13.966C7.26295 13.544 7.5 12.9717 7.5 12.375H10.5C10.5 12.9717 10.7371 13.544 11.159 13.966C11.581 14.388 12.1533 14.625 12.75 14.625C13.3467 14.625 13.919 14.388 14.341 13.966C14.7629 13.544 15 12.9717 15 12.375H15.75C15.9489 12.375 16.1397 12.296 16.2803 12.1553C16.421 12.0147 16.5 11.8239 16.5 11.625V9.37501C16.5 8.77827 16.2629 8.20598 15.841 7.78402C15.419 7.36206 14.8467 7.12501 14.25 7.12501ZM9.75 4.87501H10.9875C11.1364 4.87636 11.2816 4.92201 11.4045 5.00616C11.5274 5.09031 11.6224 5.20914 11.6775 5.34751L12.39 7.12501H9.75V4.87501ZM5.745 5.47501C5.78006 5.30305 5.87432 5.14884 6.01136 5.03921C6.1484 4.92957 6.31954 4.87147 6.495 4.87501H8.25V7.12501H5.415L5.745 5.47501ZM5.25 13.125C5.10166 13.125 4.95666 13.081 4.83332 12.9986C4.70999 12.9162 4.61386 12.7991 4.55709 12.662C4.50032 12.525 4.48547 12.3742 4.51441 12.2287C4.54335 12.0832 4.61478 11.9496 4.71967 11.8447C4.82456 11.7398 4.9582 11.6684 5.10368 11.6394C5.24917 11.6105 5.39997 11.6253 5.53701 11.6821C5.67406 11.7389 5.79119 11.835 5.8736 11.9583C5.95601 12.0817 6 12.2267 6 12.375C6 12.5739 5.92098 12.7647 5.78033 12.9053C5.63968 13.046 5.44891 13.125 5.25 13.125ZM12.75 13.125C12.6017 13.125 12.4567 13.081 12.3333 12.9986C12.21 12.9162 12.1139 12.7991 12.0571 12.662C12.0003 12.525 11.9855 12.3742 12.0144 12.2287C12.0434 12.0832 12.1148 11.9496 12.2197 11.8447C12.3246 11.7398 12.4582 11.6684 12.6037 11.6394C12.7492 11.6105 12.9 11.6253 13.037 11.6821C13.1741 11.7389 13.2912 11.835 13.3736 11.9583C13.456 12.0817 13.5 12.2267 13.5 12.375C13.5 12.5739 13.421 12.7647 13.2803 12.9053C13.1397 13.046 12.9489 13.125 12.75 13.125ZM15 10.875H14.415C14.2041 10.643 13.9471 10.4576 13.6603 10.3308C13.3736 10.2039 13.0635 10.1384 12.75 10.1384C12.4365 10.1384 12.1264 10.2039 11.8397 10.3308C11.5529 10.4576 11.2959 10.643 11.085 10.875H6.915C6.70411 10.643 6.44706 10.4576 6.16034 10.3308C5.87361 10.2039 5.56354 10.1384 5.25 10.1384C4.93646 10.1384 4.62639 10.2039 4.33966 10.3308C4.05294 10.4576 3.79589 10.643 3.585 10.875H3V9.37501C3 9.1761 3.07902 8.98533 3.21967 8.84468C3.36032 8.70403 3.55109 8.62501 3.75 8.62501H14.25C14.4489 8.62501 14.6397 8.70403 14.7803 8.84468C14.921 8.98533 15 9.1761 15 9.37501V10.875Z" fill="#F58220"/>
</svg>
