<svg width="14" height="14" viewBox="0 0 14 14" fill="none" xmlns="http://www.w3.org/2000/svg">
<g clip-path="url(#clip0)">
<path d="M13.8632 7.16115C13.8632 6.68531 13.8246 6.20689 13.7423 5.73877H7.13965V8.43434H10.9207C10.7638 9.30371 10.2596 10.0728 9.52143 10.5615V12.3105H11.7772C13.1018 11.0913 13.8632 9.29085 13.8632 7.16115Z" fill="#4285F4"/>
<path d="M7.14014 14.0004C9.02807 14.0004 10.6202 13.3806 11.7802 12.3106L9.52449 10.5615C8.89689 10.9885 8.08668 11.2303 7.14271 11.2303C5.31651 11.2303 3.7681 9.99824 3.21253 8.3418H0.884766V10.1448C2.07308 12.5086 4.49344 14.0004 7.14014 14.0004Z" fill="#34A853"/>
<path d="M3.20946 8.34207C2.91624 7.4727 2.91624 6.53131 3.20946 5.66194V3.85889H0.884274C-0.10856 5.83684 -0.10856 8.16717 0.884274 10.1451L3.20946 8.34207Z" fill="#FBBC04"/>
<path d="M7.14014 2.77063C8.13812 2.7552 9.10266 3.13073 9.82542 3.82006L11.824 1.82153C10.5585 0.633211 8.87889 -0.0201052 7.14014 0.000471722C4.49344 0.000471722 2.07308 1.4923 0.884766 3.85864L3.20995 5.66169C3.76296 4.00268 5.31394 2.77063 7.14014 2.77063Z" fill="#EA4335"/>
</g>
<defs>
<clipPath id="clip0">
<rect width="14" height="14" fill="white"/>
</clipPath>
</defs>
</svg>
