<svg width="48" height="48" viewBox="0 0 48 48" fill="none" xmlns="http://www.w3.org/2000/svg">
<path d="M31.42 25.4193C33.3808 23.8766 34.812 21.7611 35.5145 19.3672C36.217 16.9732 36.1558 14.4198 35.3396 12.0622C34.5233 9.70461 32.9925 7.66006 30.9601 6.21298C28.9278 4.76591 26.4949 3.98828 24 3.98828C21.5051 3.98828 19.0722 4.76591 17.0399 6.21298C15.0075 7.66006 13.4767 9.70461 12.6604 12.0622C11.8442 14.4198 11.783 16.9732 12.4855 19.3672C13.188 21.7611 14.6192 23.8766 16.58 25.4193C13.2201 26.7654 10.2886 28.998 8.09778 31.8791C5.90699 34.7602 4.53912 38.1819 4.13999 41.7793C4.1111 42.0419 4.13423 42.3077 4.20804 42.5614C4.28186 42.8151 4.40493 43.0518 4.57022 43.2579C4.90403 43.6743 5.38956 43.9409 5.91999 43.9993C6.45043 44.0576 6.98231 43.9029 7.39864 43.569C7.81497 43.2352 8.08165 42.7497 8.13999 42.2193C8.57916 38.3097 10.4434 34.6989 13.3764 32.0769C16.3095 29.4548 20.1058 28.0053 24.04 28.0053C27.9742 28.0053 31.7705 29.4548 34.7036 32.0769C37.6366 34.6989 39.5008 38.3097 39.94 42.2193C39.9944 42.7107 40.2289 43.1646 40.5982 43.4933C40.9675 43.822 41.4456 44.0023 41.94 43.9993H42.16C42.6843 43.9389 43.1634 43.6739 43.4931 43.2618C43.8228 42.8497 43.9762 42.324 43.92 41.7993C43.519 38.1917 42.1437 34.7612 39.9417 31.8757C37.7396 28.9901 34.7938 26.7582 31.42 25.4193ZM24 23.9993C22.4177 23.9993 20.871 23.5301 19.5554 22.651C18.2398 21.772 17.2145 20.5226 16.609 19.0607C16.0035 17.5989 15.845 15.9904 16.1537 14.4386C16.4624 12.8867 17.2243 11.4612 18.3431 10.3424C19.462 9.2236 20.8874 8.46167 22.4393 8.15299C23.9911 7.84431 25.5997 8.00274 27.0615 8.60824C28.5233 9.21374 29.7727 10.2391 30.6518 11.5547C31.5308 12.8703 32 14.417 32 15.9993C32 18.121 31.1571 20.1558 29.6568 21.6561C28.1566 23.1564 26.1217 23.9993 24 23.9993Z" fill="black"/>
</svg>
