<svg width="25" height="24" viewBox="0 0 25 24" fill="none" xmlns="http://www.w3.org/2000/svg">
<path d="M20.13 3.65031C20.0138 3.55633 19.8781 3.48958 19.7327 3.45497C19.5873 3.42036 19.4361 3.41877 19.29 3.45031C18.2214 3.67425 17.1183 3.67711 16.0486 3.45869C14.9789 3.24028 13.9653 2.80522 13.07 2.18031C12.9026 2.06418 12.7037 2.00195 12.5 2.00195C12.2963 2.00195 12.0974 2.06418 11.93 2.18031C11.0348 2.80522 10.0211 3.24028 8.95137 3.45869C7.88166 3.67711 6.77857 3.67425 5.71001 3.45031C5.56394 3.41877 5.41267 3.42036 5.26731 3.45497C5.12194 3.48958 4.98618 3.55633 4.87001 3.65031C4.75399 3.74443 4.66053 3.86334 4.5965 3.99832C4.53247 4.1333 4.4995 4.28091 4.50001 4.43031V11.8803C4.49912 13.3141 4.84078 14.7273 5.49654 16.0023C6.1523 17.2773 7.10319 18.3771 8.27001 19.2103L11.92 21.8103C12.0894 21.9309 12.2921 21.9957 12.5 21.9957C12.7079 21.9957 12.9106 21.9309 13.08 21.8103L16.73 19.2103C17.8968 18.3771 18.8477 17.2773 19.5035 16.0023C20.1592 14.7273 20.5009 13.3141 20.5 11.8803V4.43031C20.5005 4.28091 20.4675 4.1333 20.4035 3.99832C20.3395 3.86334 20.246 3.74443 20.13 3.65031ZM18.5 11.8803C18.5008 12.9951 18.2353 14.0939 17.7257 15.0853C17.216 16.0768 16.477 16.9322 15.57 17.5803L12.5 19.7703L9.43001 17.5803C8.52304 16.9322 7.78399 16.0768 7.27435 15.0853C6.76472 14.0939 6.49924 12.9951 6.50001 11.8803V5.58031C8.59643 5.75974 10.696 5.27333 12.5 4.19031C14.304 5.27333 16.4036 5.75974 18.5 5.58031V11.8803ZM14.04 9.59031L11.35 12.2903L10.46 11.3903C10.2717 11.202 10.0163 11.0962 9.75001 11.0962C9.4837 11.0962 9.22831 11.202 9.04001 11.3903C8.8517 11.5786 8.74591 11.834 8.74591 12.1003C8.74591 12.3666 8.8517 12.622 9.04001 12.8103L10.64 14.4103C10.733 14.504 10.8436 14.5784 10.9654 14.6292C11.0873 14.68 11.218 14.7061 11.35 14.7061C11.482 14.7061 11.6127 14.68 11.7346 14.6292C11.8564 14.5784 11.967 14.504 12.06 14.4103L15.5 11.0003C15.6883 10.812 15.7941 10.5566 15.7941 10.2903C15.7941 10.024 15.6883 9.76861 15.5 9.58031C15.3117 9.392 15.0563 9.28622 14.79 9.28622C14.5237 9.28622 14.2683 9.392 14.08 9.58031L14.04 9.59031Z" fill="white"/>
</svg>
